<svg xmlns="http://www.w3.org/2000/svg" viewBox="0 0 200 200">
  <defs>
    <linearGradient id="gradient" x1="0%" y1="0%" x2="100%" y2="100%">
      <stop offset="0%" stop-color="#3b74e5"/>
      <stop offset="100%" stop-color="#1f4db3"/>
    </linearGradient>
  </defs>
  <rect width="200" height="200" rx="36" fill="#f5f8ff"/>
  <circle cx="100" cy="100" r="70" fill="url(#gradient)" opacity="0.16"/>
  <path d="M68 112c0-7.6 6.1-13.7 13.7-13.7h36.6c7.6 0 13.7 6.1 13.7 13.7v11.6c0 7.6-6.1 13.7-13.7 13.7H81.7C74.1 137.3 68 131.2 68 123.6V112Z" fill="#1f4db3" opacity="0.18"/>
  <path d="M70 91.5c0-14.3 11.6-25.9 25.9-25.9h8.2c14.3 0 25.9 11.6 25.9 25.9v2.1h11.5c3.5 0 6.3 2.8 6.3 6.3v16.1c0 3.5-2.8 6.3-6.3 6.3H70.8c-3.5 0-6.3-2.8-6.3-6.3V97.8c0-3.5 2.8-6.3 6.3-6.3H70v-0.0Z" fill="#3b74e5"/>
  <path d="M92.5 64.4c-15.3 0-27.7 12.4-27.7 27.7v3.4h8.8v-3.4c0-10.5 8.5-19 19-19h12.8c10.5 0 19 8.5 19 19v3.4h8.8v-3.4c0-15.3-12.4-27.7-27.7-27.7H92.5Z" fill="#1f4db3"/>
</svg>
